<svg width="16" height="16" viewBox="0 0 16 16" fill="none" xmlns="http://www.w3.org/2000/svg">
<rect width="16" height="16" fill="#F5F5F5"/>
<circle cx="8" cy="8" r="8" fill="black"/>
<circle cx="8" cy="8" r="6" fill="black"/>
<path d="M5.27637 11H4.18652C4.16016 11 4.14551 10.9854 4.14258 10.9561L3.0791 4.77295C3.07324 4.74951 3.08203 4.73779 3.10547 4.73779H4.11621C4.13965 4.73779 4.1543 4.74951 4.16016 4.77295L4.73584 8.83789L5.3291 4.77295C5.33496 4.74951 5.35254 4.73779 5.38184 4.73779H6.19482C6.21826 4.73779 6.23291 4.74951 6.23877 4.77295L6.82324 8.83789L7.40771 4.77295C7.41357 4.74951 7.42822 4.73779 7.45166 4.73779H8.45361C8.48291 4.73779 8.49463 4.74951 8.48877 4.77295L7.4165 10.9561C7.41357 10.9678 7.40479 10.978 7.39014 10.9868L7.37256 11H6.28271C6.26514 11 6.25049 10.9854 6.23877 10.9561L5.77734 7.72607L5.32031 10.9561C5.31738 10.9854 5.30273 11 5.27637 11ZM10.3561 11H9.45521C9.40834 11 9.3849 10.9795 9.3849 10.9385L9.37611 4.80811C9.37611 4.76123 9.39955 4.73779 9.44643 4.73779H10.2594L11.7799 8.28418L11.736 4.80811C11.736 4.76123 11.7623 4.73779 11.8151 4.73779H12.7072C12.7423 4.73779 12.7599 4.76123 12.7599 4.80811L12.7687 10.9473C12.7687 10.9824 12.754 11 12.7247 11H11.9337L10.3737 7.68652L10.4396 10.9297C10.4396 10.9766 10.4118 11 10.3561 11Z" fill="white"/>
</svg>
